<?xml version="1.0" encoding="UTF-8"?>
<svg xmlns="http://www.w3.org/2000/svg" width="128" height="128">
	<g transform="translate(-10.929494,-10.464407)">
		<path fill="#185d2c" d="m 138.92949,111.16841 c 0,15.072 -12.219,27.295 -27.287,27.295 H 38.215494 c -15.07,0 -27.286,-12.223 -27.286,-27.295 V 37.758407 c 0,-15.075 12.216,-27.294 27.286,-27.294 h 73.426996 c 15.068,0 27.287,12.219 27.287,27.294 z" />
		<path fill="#319f2f" d="m 136.64249,109.85641 c 0,14.537 -11.781,26.322 -26.312,26.322 H 39.526494 c -14.529,0 -26.311,-11.785 -26.311,-26.322 V 39.068407 c 0,-14.538 11.781,-26.319 26.311,-26.319 h 70.802996 c 14.531,0 26.312,11.781 26.312,26.319 v 70.788003 z" />
		<path fill="url(#gradient_2_)" d="m 134.35749,108.54941 c 0,13.994 -11.348,25.344 -25.334,25.344 H 40.838494 c -13.994,0 -25.338,-11.35 -25.338,-25.344 V 40.381407 c 0,-14 11.344,-25.346 25.338,-25.346 h 68.184996 c 13.986,0 25.334,11.346 25.334,25.346 z" style="fill:#0e9a34;fill-opacity:1" />
		<g transform="translate(10.929494,10.464407)">
			<circle fill="#ffffff" cx="36.416" cy="63.75" r="15.45" /> 
			<rect x="58.118999" y="47.926998" transform="matrix(0.4543,-0.8908,0.8908,0.4543,-35.4254,100.0826)" fill="#ffffff" width="11.72" height="62.058998" /> 
			<rect x="58.118999" y="18.594" transform="matrix(-0.4543,-0.8909,0.8909,-0.4543,48.8347,129.1622)" fill="#ffffff" width="11.721" height="62.060001" /> 
			<circle fill="#ffffff" cx="91.584" cy="92.583" r="15.45" /> 
			<circle fill="#ffffff" cx="91.584" cy="35.417" r="15.45" /> 
		</g>
	</g>		
</svg>
